<mxfile host="65bd71144e">
    <diagram id="FEKs1Ydo8B9wyj4EEfXS" name="Page-1">
        <mxGraphModel dx="1420" dy="643" grid="1" gridSize="10" guides="1" tooltips="1" connect="1" arrows="1" fold="1" page="1" pageScale="1" pageWidth="850" pageHeight="1100" math="0" shadow="0">
            <root>
                <mxCell id="0"/>
                <mxCell id="1" parent="0"/>
                <mxCell id="13" value="map" style="rounded=0;whiteSpace=wrap;html=1;" parent="1" vertex="1">
                    <mxGeometry x="170" y="140" width="430" height="380" as="geometry"/>
                </mxCell>
                <mxCell id="20" value="" style="group" parent="1" vertex="1" connectable="0">
                    <mxGeometry x="180" y="150" width="155" height="25" as="geometry"/>
                </mxCell>
                <mxCell id="6" value="Location" style="rounded=0;whiteSpace=wrap;html=1;" parent="20" vertex="1">
                    <mxGeometry width="135" height="25" as="geometry"/>
                </mxCell>
                <mxCell id="8" value="" style="rounded=0;whiteSpace=wrap;html=1;" parent="20" vertex="1">
                    <mxGeometry x="135" width="20" height="25" as="geometry"/>
                </mxCell>
                <mxCell id="11" value="" style="html=1;verticalLabelPosition=bottom;align=center;labelBackgroundColor=#ffffff;verticalAlign=top;strokeWidth=2;strokeColor=#0080F0;shadow=0;dashed=0;shape=mxgraph.ios7.icons.location;" parent="20" vertex="1">
                    <mxGeometry x="137" y="2.5" width="16" height="20" as="geometry"/>
                </mxCell>
                <mxCell id="22" value="" style="group" parent="1" vertex="1" connectable="0">
                    <mxGeometry x="5" y="140" width="155" height="380" as="geometry"/>
                </mxCell>
                <mxCell id="12" value="" style="rounded=0;whiteSpace=wrap;html=1;" parent="22" vertex="1">
                    <mxGeometry width="155" height="380" as="geometry"/>
                </mxCell>
                <mxCell id="21" value="" style="group" parent="22" vertex="1" connectable="0">
                    <mxGeometry x="17.5" y="20" width="120" height="200" as="geometry"/>
                </mxCell>
                <mxCell id="14" value="list item" style="rounded=0;whiteSpace=wrap;html=1;" parent="21" vertex="1">
                    <mxGeometry width="120" height="60" as="geometry"/>
                </mxCell>
                <mxCell id="15" value="list item" style="rounded=0;whiteSpace=wrap;html=1;" parent="21" vertex="1">
                    <mxGeometry y="70" width="120" height="60" as="geometry"/>
                </mxCell>
                <mxCell id="16" value="list item" style="rounded=0;whiteSpace=wrap;html=1;" parent="21" vertex="1">
                    <mxGeometry y="140" width="120" height="60" as="geometry"/>
                </mxCell>
                <mxCell id="23" value="" style="group" parent="1" vertex="1" connectable="0">
                    <mxGeometry x="170" y="95" width="100" height="25" as="geometry"/>
                </mxCell>
                <mxCell id="17" value="cycling" style="rounded=0;whiteSpace=wrap;html=1;" parent="23" vertex="1">
                    <mxGeometry width="50" height="25" as="geometry"/>
                </mxCell>
                <mxCell id="19" value="running" style="rounded=0;whiteSpace=wrap;html=1;" parent="23" vertex="1">
                    <mxGeometry x="50" width="50" height="25" as="geometry"/>
                </mxCell>
                <mxCell id="26" value="+" style="rounded=0;whiteSpace=wrap;html=1;" vertex="1" parent="1">
                    <mxGeometry x="280" y="95" width="30" height="25" as="geometry"/>
                </mxCell>
                <mxCell id="28" value="[ ]" style="rounded=0;whiteSpace=wrap;html=1;" vertex="1" parent="1">
                    <mxGeometry x="560" y="150" width="30" height="25" as="geometry"/>
                </mxCell>
            </root>
        </mxGraphModel>
    </diagram>
</mxfile>